<?xml version="1.0" encoding="UTF-8"?>
<!DOCTYPE svg PUBLIC "-//W3C//DTD SVG 1.1//EN" "http://www.w3.org/Graphics/SVG/1.1/DTD/svg11.dtd">
<svg xmlns="http://www.w3.org/2000/svg" version="1.1" width="1024px" height="1024px" style="shape-rendering:geometricPrecision; text-rendering:geometricPrecision; image-rendering:optimizeQuality; fill-rule:evenodd; clip-rule:evenodd" xmlns:xlink="http://www.w3.org/1999/xlink">
<g><path style="opacity:1" fill="#fbfafa" d="M -0.5,-0.5 C 340.833,-0.5 682.167,-0.5 1023.5,-0.5C 1023.5,340.833 1023.5,682.167 1023.5,1023.5C 682.167,1023.5 340.833,1023.5 -0.5,1023.5C -0.5,682.167 -0.5,340.833 -0.5,-0.5 Z"/></g>
<g><path style="opacity:1" fill="#ffbd59" d="M 74.5,48.5 C 120.835,48.3333 167.168,48.5 213.5,49C 230.337,52.5039 240.504,62.6706 244,79.5C 244.667,127.167 244.667,174.833 244,222.5C 241.413,240.421 231.247,251.254 213.5,255C 167.167,255.667 120.833,255.667 74.5,255C 59.7018,250.868 50.2018,241.368 46,226.5C 45.3333,176.5 45.3333,126.5 46,76.5C 50.7862,62.2124 60.2862,52.8791 74.5,48.5 Z"/></g>
<g><path style="opacity:1" fill="#ffbd59" d="M 318.5,48.5 C 364.501,48.3333 410.501,48.5 456.5,49C 472.556,51.7177 483.056,60.8844 488,76.5C 488.667,126.5 488.667,176.5 488,226.5C 483.646,242.187 473.479,251.687 457.5,255C 411.167,255.667 364.833,255.667 318.5,255C 302.335,250.503 292.835,240.003 290,223.5C 289.333,174.833 289.333,126.167 290,77.5C 294.35,62.6512 303.85,52.9845 318.5,48.5 Z"/></g>
<g><path style="opacity:1" fill="#3d3838" d="M 563.5,48.5 C 609.835,48.3333 656.168,48.5 702.5,49C 719.306,52.473 729.473,62.6397 733,79.5C 733.667,127.167 733.667,174.833 733,222.5C 730.133,241.367 719.3,252.2 700.5,255C 654.833,255.667 609.167,255.667 563.5,255C 548.22,250.72 538.72,240.887 535,225.5C 534.333,176.167 534.333,126.833 535,77.5C 539.277,62.6279 548.777,52.9612 563.5,48.5 Z"/></g>
<g><path style="opacity:1" fill="#3d3838" d="M 797.5,107.5 C 831.835,107.333 866.168,107.5 900.5,108C 910.14,110.305 916.64,116.138 920,125.5C 920.667,162.167 920.667,198.833 920,235.5C 916.983,246.447 909.816,252.947 898.5,255C 865.167,255.667 831.833,255.667 798.5,255C 787.334,251.503 780.834,244.003 779,232.5C 778.333,197.5 778.333,162.5 779,127.5C 782.291,118.047 788.458,111.38 797.5,107.5 Z"/></g>
<g><path style="opacity:1" fill="#ffbd59" d="M 72.5,288.5 C 120.168,288.333 167.834,288.5 215.5,289C 232.1,293.601 241.6,304.434 244,321.5C 244.667,369.5 244.667,417.5 244,465.5C 240.176,481.324 230.342,491.158 214.5,495C 167.833,495.667 121.167,495.667 74.5,495C 59.6667,490.833 50.1667,481.333 46,466.5C 45.3333,416.5 45.3333,366.5 46,316.5C 49.912,302.423 58.7453,293.09 72.5,288.5 Z"/></g>
<g><path style="opacity:1" fill="#3d3838" d="M 317.5,288.5 C 364.835,288.333 412.168,288.5 459.5,289C 474.556,292.389 484.056,301.555 488,316.5C 488.667,366.5 488.667,416.5 488,466.5C 483.833,481.333 474.333,490.833 459.5,495C 412.5,495.667 365.5,495.667 318.5,495C 301.941,490.394 292.441,479.561 290,462.5C 289.333,414.167 289.333,365.833 290,317.5C 294.274,303.062 303.441,293.396 317.5,288.5 Z"/></g>
<g><path style="opacity:1" fill="#ffbd59" d="M 561.5,288.5 C 609.168,288.333 656.834,288.5 704.5,289C 719.776,293.276 729.276,303.109 733,318.5C 733.667,366.5 733.667,414.5 733,462.5C 730.281,480.885 719.781,491.719 701.5,495C 655.5,495.667 609.5,495.667 563.5,495C 548.649,490.816 539.149,481.316 535,466.5C 534.333,416.167 534.333,365.833 535,315.5C 539.351,301.984 548.184,292.984 561.5,288.5 Z"/></g>
<g><path style="opacity:1" fill="#3d3838" d="M 806.5,288.5 C 853.835,288.333 901.168,288.5 948.5,289C 963.556,292.389 973.056,301.555 977,316.5C 977.667,366.5 977.667,416.5 977,466.5C 972.833,481.333 963.333,490.833 948.5,495C 901.5,495.667 854.5,495.667 807.5,495C 790.854,490.359 781.354,479.525 779,462.5C 778.333,413.833 778.333,365.167 779,316.5C 783.376,302.291 792.543,292.958 806.5,288.5 Z"/></g>
<g><path style="opacity:1" fill="#ffbd59" d="M 75.5,527.5 C 121.168,527.333 166.835,527.5 212.5,528C 229.301,531.144 239.801,540.977 244,557.5C 244.667,605.833 244.667,654.167 244,702.5C 241.238,718.595 232.072,729.095 216.5,734C 168.5,734.667 120.5,734.667 72.5,734C 58.1324,729.633 49.299,720.133 46,705.5C 45.3333,655.5 45.3333,605.5 46,555.5C 50.8749,540.788 60.7082,531.455 75.5,527.5 Z"/></g>
<g><path style="opacity:1" fill="#3d3838" d="M 320.5,527.5 C 365.835,527.333 411.168,527.5 456.5,528C 472.598,530.766 483.098,539.932 488,555.5C 488.667,605.833 488.667,656.167 488,706.5C 484.056,721.445 474.556,730.611 459.5,734C 412.167,734.667 364.833,734.667 317.5,734C 301.932,729.098 292.766,718.598 290,702.5C 289.333,654.167 289.333,605.833 290,557.5C 294.214,541.333 304.38,531.333 320.5,527.5 Z"/></g>
<g><path style="opacity:1" fill="#ffbd59" d="M 564.5,527.5 C 609.835,527.333 655.168,527.5 700.5,528C 717.779,531.278 728.612,541.445 733,558.5C 733.667,606.5 733.667,654.5 733,702.5C 730.263,718.573 721.096,729.073 705.5,734C 657.5,734.667 609.5,734.667 561.5,734C 547.568,729.735 538.735,720.568 535,706.5C 534.333,656.167 534.333,605.833 535,555.5C 539.858,540.806 549.691,531.473 564.5,527.5 Z"/></g>
<g><path style="opacity:1" fill="#d9d9d9" d="M 808.5,527.5 C 854.501,527.333 900.501,527.5 946.5,528C 962.488,531.322 972.654,540.822 977,556.5C 977.667,606.5 977.667,656.5 977,706.5C 973.056,721.445 963.556,730.611 948.5,734C 901.167,734.667 853.833,734.667 806.5,734C 791.383,729.215 782.216,719.049 779,703.5C 778.333,654.5 778.333,605.5 779,556.5C 783.421,541.245 793.254,531.578 808.5,527.5 Z"/></g>
<g><path style="opacity:1" fill="#ffbd59" d="M 74.5,767.5 C 121.168,767.333 167.835,767.5 214.5,768C 230.793,771.959 240.626,782.126 244,798.5C 244.667,846.167 244.667,893.833 244,941.5C 241.404,959.43 231.237,970.263 213.5,974C 167.167,974.667 120.833,974.667 74.5,974C 59.7018,969.868 50.2018,960.368 46,945.5C 45.3333,895.5 45.3333,845.5 46,795.5C 50.7862,781.212 60.2862,771.879 74.5,767.5 Z"/></g>
<g><path style="opacity:1" fill="#ffbd59" d="M 318.5,767.5 C 364.835,767.333 411.168,767.5 457.5,768C 473.015,771.179 483.181,780.346 488,795.5C 488.667,845.5 488.667,895.5 488,945.5C 483.494,961.675 472.994,971.175 456.5,974C 410.5,974.667 364.5,974.667 318.5,974C 302.335,969.503 292.835,959.003 290,942.5C 289.333,893.833 289.333,845.167 290,796.5C 294.35,781.651 303.85,771.985 318.5,767.5 Z"/></g>
<g><path style="opacity:1" fill="#3d3838" d="M 563.5,767.5 C 609.168,767.333 654.835,767.5 700.5,768C 718.843,770.676 729.677,781.176 733,799.5C 733.667,846.833 733.667,894.167 733,941.5C 730.379,959.453 720.213,970.286 702.5,974C 656.167,974.667 609.833,974.667 563.5,974C 547.548,970.381 538.048,960.548 535,944.5C 534.333,895.167 534.333,845.833 535,796.5C 539.337,781.664 548.837,771.997 563.5,767.5 Z"/></g>
<g><path style="opacity:1" fill="#3d3838" d="M 799.5,767.5 C 834.502,767.333 869.502,767.5 904.5,768C 915.667,771.167 922.833,778.333 926,789.5C 926.667,825.5 926.667,861.5 926,897.5C 924.201,908.602 918.034,916.102 907.5,920C 870.833,920.667 834.167,920.667 797.5,920C 786.935,916.103 780.769,908.603 779,897.5C 778.333,861.167 778.333,824.833 779,788.5C 782.351,777.984 789.184,770.984 799.5,767.5 Z"/></g>
</svg>
